<svg xmlns="http://www.w3.org/2000/svg" xmlns:xlink="http://www.w3.org/1999/xlink" width="500" zoomAndPan="magnify" viewBox="0 0 375 374.999991" height="500" preserveAspectRatio="xMidYMid meet" version="1.0"><defs><clipPath id="81478d7f25"><path d="M 132 179 L 243 179 L 243 259.363281 L 132 259.363281 Z M 132 179 " clip-rule="nonzero"/></clipPath><clipPath id="779e9a158a"><path d="M 112.5 116 L 262.5 116 L 262.5 183 L 112.5 183 Z M 112.5 116 " clip-rule="nonzero"/></clipPath></defs><g clip-path="url(#81478d7f25)"><path fill="#ffffff" d="M 236.011719 248.941406 C 236.011719 250.859375 234.449219 252.386719 232.558594 252.386719 L 208.320312 252.386719 C 206.398438 252.386719 204.871094 250.828125 204.871094 248.941406 L 204.871094 213.070312 C 204.871094 207.351562 200.21875 202.710938 194.488281 202.710938 L 180.628906 202.710938 C 174.898438 202.710938 170.25 207.351562 170.25 213.070312 L 170.25 248.941406 C 170.25 250.859375 168.691406 252.386719 166.800781 252.386719 L 142.46875 252.386719 C 140.550781 252.386719 139.019531 250.828125 139.019531 248.941406 L 139.019531 179.804688 L 132.089844 179.804688 L 132.089844 248.941406 C 132.089844 254.664062 136.738281 259.304688 142.46875 259.304688 L 166.710938 259.304688 C 172.441406 259.304688 177.089844 254.664062 177.089844 248.941406 L 177.089844 213.070312 C 177.089844 211.152344 178.648438 209.625 180.539062 209.625 L 194.398438 209.625 C 196.320312 209.625 197.851562 211.183594 197.851562 213.070312 L 197.851562 248.941406 C 197.851562 254.664062 202.5 259.304688 208.230469 259.304688 L 232.46875 259.304688 C 238.199219 259.304688 242.851562 254.664062 242.851562 248.941406 L 242.851562 179.804688 L 235.921875 179.804688 Z M 236.011719 248.941406 " fill-opacity="1" fill-rule="nonzero"/></g><g clip-path="url(#779e9a158a)"><path fill="#ffffff" d="M 194.25 118.777344 C 190.320312 115.421875 184.648438 115.421875 180.71875 118.777344 L 112.5 177.167969 L 117 182.40625 L 185.25 124.015625 C 186.570312 122.910156 188.460938 122.910156 189.75 124.015625 L 258 182.40625 L 262.5 177.167969 Z M 194.25 118.777344 " fill-opacity="1" fill-rule="nonzero"/></g></svg>